<?xml version="1.0" encoding="UTF-8"?>
<svg id="Ebene_1" data-name="Ebene 1" xmlns="http://www.w3.org/2000/svg" viewBox="0 0 500 262.58">
  <defs>
    <style>
      .cls-1 {
        fill: #9a92c2;
      }

      .cls-2 {
        fill: #fff;
      }

      .cls-3 {
        fill: #316d34;
      }

      .cls-4 {
        fill: #dcecd0;
      }
    </style>
  </defs>
  <path class="cls-4" d="m296.16,81.49c-4.16-8.77-10.06-16.57-17.29-22.97-12.93-11.46-30.07-18.46-48.85-18.46-40.28,0-72.94,32.06-72.94,71.64,0,.95.02,1.87.07,2.79,0,.3,0,.6.02.9,1.94,37.86,33.83,67.98,72.84,67.98s68.36-27.8,72.44-63.55c.32-2.67.47-5.38.47-8.12,0-10.81-2.42-21.05-6.78-30.22Zm-90.4,33.01h.5c-.17-.1-.35-.2-.5-.27.07-13.13,9.04-21.05,23.52-21.5,13.63-.4,22.79,7.75,23.52,21.77.1,1.84-.07,3.61-.5,5.31-2.22,9.17-11.41,15.92-23.02,16.44-13.68.6-23.49-8.35-23.52-21.75Z"/>
  <g>
    <path class="cls-3" d="m148.95,92.14c1.73,0,3.25,1.52,3.25,3.04v69.01c0,1.95-1.08,3.91-2.61,5.21-13.02,11.07-32.98,17.58-53.82,17.58-46.87,0-78.12-31.25-78.12-78.12S48.91,30.72,95.78,30.72c16.06,0,32.99,4.77,45.57,12.59,1.73.87,2.39,2.6,1.95,3.91l-10.85,31.9c-.65,1.52-2.17,2.17-4.13,1.74-8.89-4.77-20.4-7.59-31.25-7.59-19.97,0-33.42,14.32-33.42,35.59s13.45,36.02,33.42,36.02c8.03,0,13.45-1.52,15.84-4.12v-12.59h-19.97c-1.95,0-3.25-.87-3.47-2.39l-2.82-29.95c-.22-2.17,1.08-3.69,3.47-3.69h58.81Zm-34.72,45.35v.87-.87Z"/>
    <path class="cls-3" d="m349.97,26.6c1.73,0,3.25,1.52,3.25,3.04v72.05l20.18-34.5c.87-1.52,3.04-2.6,4.99-2.6h43.4c1.74,0,2.39,1.08,1.52,2.6l-32.12,53.17,39.28,60.98c1.08,1.52.22,2.6-1.52,2.6h-46.22c-1.52,0-3.69-1.08-4.56-2.6l-24.95-42.97v42.32c0,1.74-1.52,3.25-3.25,3.25h-38.19c-1.74,0-3.25-1.52-3.25-3.25V29.64c0-1.52,1.52-3.04,3.25-3.04h38.19Z"/>
    <path class="cls-3" d="m482.34,39.19c0,12.8-9.55,21.48-23.87,21.48s-23.87-8.68-23.87-21.48c0-13.45,9.55-22.35,23.87-22.35s23.87,8.9,23.87,22.35Zm-4.56,25.39c1.74,0,3.25,1.52,3.25,3.04v113.06c0,1.74-1.52,3.25-3.25,3.25h-38.19c-1.74,0-3.25-1.52-3.25-3.25v-113.06c0-1.52,1.52-3.04,3.25-3.04h38.19Z"/>
  </g>
  <g>
    <path class="cls-1" d="m286.94,114.92l-.15-.42-2.22-6.43-.75-6.4v-.1l-.92-8-66.84-10.44h-39.04l3.31,24.94-8,6.43-.85.7-3.74,2.99,3.64,11.46,75.11,36.72,44.27-40.36-3.84-11.09Zm-81.19-.7c.07-13.13,9.04-21.05,23.52-21.5,13.63-.4,22.79,7.75,23.52,21.77.1,1.84-.07,3.61-.5,5.31-2.22,9.17-11.41,15.92-23.02,16.44-13.68.6-23.49-8.35-23.52-21.75h.5c-.17-.1-.35-.2-.5-.27Z"/>
    <path class="cls-3" d="m297.14,53.44l-107.97,30.01,94.59,18.2c12.54-13.2,18.19-31.07,13.38-48.2Z"/>
    <g>
      <path class="cls-3" d="m290.78,103l-7.03-1.35c-4.82,5.07-10.65,9.46-17.3,12.85h20.68c1.62-3.62,2.87-7.46,3.65-11.49Z"/>
      <path class="cls-3" d="m206.25,114.49h-35.15c-5.73-10.79-7.95-23.14-5.53-35.57l21.9,4.21,1.69.32-6.78,1.87c3.54,12.58,12.11,22.54,23.37,28.9.15.07.32.17.5.27Z"/>
      <path class="cls-3" d="m287.14,114.49c-10.94,24.46-39.79,38.85-69.91,33.06-20.82-4-37.47-16.74-46.12-33.06h-13.94c0,39.05,32.58,70.7,72.76,70.7s72.76-31.66,72.76-70.7h-15.55Z"/>
      <path class="cls-3" d="m266.46,114.49c-3.96,2.02-8.17,3.66-12.65,4.91-.5.15-1.02.27-1.52.4.42-1.69.6-3.46.5-5.31h13.68Z"/>
    </g>
  </g>
  <path class="cls-2" d="m206.25,114.49h-.5v-.27c.15.07.32.17.5.27Z"/>
  <g>
    <path class="cls-1" d="m30.85,240.01c-2.18,0-4.08-.53-5.69-1.6s-2.74-2.49-3.39-4.29l3.39-1.6c.57,1.2,1.36,2.14,2.36,2.85s2.11,1.05,3.33,1.05c1.04,0,1.88-.23,2.53-.7.65-.47.98-1.1.98-1.91,0-.49-.14-.9-.43-1.23-.28-.32-.64-.59-1.07-.8s-.86-.38-1.31-.51l-3.31-.94c-1.85-.52-3.22-1.3-4.11-2.34-.9-1.04-1.35-2.26-1.35-3.66,0-1.27.33-2.39.98-3.35.65-.96,1.54-1.7,2.69-2.22,1.14-.52,2.44-.78,3.9-.78,1.92,0,3.64.47,5.14,1.42s2.57,2.27,3.2,3.96l-3.43,1.64c-.42-1.04-1.07-1.86-1.95-2.45s-1.88-.9-3-.9c-.96,0-1.73.23-2.3.68-.57.45-.86,1.05-.86,1.77,0,.49.13.9.39,1.23.26.33.6.59,1.01.78s.84.36,1.28.49l3.43,1.01c1.74.49,3.08,1.27,4.01,2.32s1.4,2.31,1.4,3.76c0,1.25-.33,2.35-.99,3.29-.66.95-1.58,1.69-2.75,2.22-1.17.53-2.53.8-4.09.8Z"/>
    <path class="cls-1" d="m74.1,225.9v13.65h-4.41v-12.43c0-1.05-.17-1.94-.55-2.67-.37-.75-.9-1.32-1.57-1.74-.67-.42-1.44-.62-2.32-.62s-1.67.2-2.34.62c-.67.42-1.2,1-1.59,1.74-.4.72-.57,1.62-.57,2.67v12.43h-4.41v-12.43c0-1.05-.2-1.94-.57-2.67-.37-.75-.9-1.32-1.54-1.74s-1.42-.62-2.34-.62c-.87,0-1.64.2-2.32.62-.7.42-1.22,1-1.59,1.74-.37.72-.57,1.62-.57,2.67v12.43h-4.38v-21.1h4.21v2.62c.42-.82,1.07-1.47,1.87-1.97,1.17-.75,2.49-1.1,4.01-1.1,1.69,0,3.19.45,4.51,1.35.9.62,1.59,1.37,2.04,2.27.57-1,1.3-1.79,2.19-2.37,1.3-.85,2.77-1.25,4.43-1.25,1.44,0,2.77.32,3.94,1,1.2.67,2.14,1.62,2.84,2.81.7,1.2,1.05,2.57,1.05,4.09Z"/>
    <path class="cls-1" d="m95.13,221.51c-.72-1.1-1.72-1.97-2.99-2.59-1.3-.62-2.77-.92-4.43-.92-1.35,0-2.62.22-3.79.65-1.2.45-2.22,1.07-3.09,1.87-.87.82-1.52,1.74-1.94,2.77l3.71,1.84c.42-1,1.07-1.77,1.94-2.37.85-.6,1.87-.9,3.01-.9,1.27,0,2.29.32,3.06.97.8.67,1.17,1.52,1.17,2.52v.8l-6.7,1.12c-1.64.25-2.96.7-4.04,1.32-1.05.62-1.82,1.4-2.34,2.29-.5.92-.75,1.94-.75,3.09,0,1.22.3,2.29.9,3.19.6.92,1.44,1.62,2.52,2.12s2.32.72,3.76.72c1.17,0,2.24-.15,3.24-.5.97-.32,1.84-.82,2.59-1.44.37-.3.72-.62,1.02-1v2.49h4.21v-14.2c0-1.44-.35-2.72-1.07-3.84Zm-3.34,9.27c0,1.07-.25,2.02-.75,2.89-.52.87-1.22,1.57-2.12,2.09-.9.52-1.92.77-3.09.77-.97,0-1.74-.25-2.37-.75-.6-.52-.9-1.17-.9-1.97s.25-1.49.8-2.04c.55-.52,1.42-.92,2.59-1.12l5.83-1v1.12Z"/>
    <rect class="cls-1" x="101.35" y="210.05" width="4.38" height="29.49"/>
    <rect class="cls-1" x="110.9" y="210.05" width="4.38" height="29.49"/>
    <path class="cls-1" d="m141.49,229.93c.92,1.05,1.4,2.32,1.4,3.76,0,1.25-.32,2.34-1,3.29-.65.95-1.57,1.69-2.74,2.22-1.17.55-2.54.8-4.09.8-2.19,0-4.09-.52-5.7-1.59-1.59-1.05-2.74-2.49-3.39-4.28l3.39-1.59c.57,1.2,1.37,2.14,2.37,2.84,1,.72,2.12,1.07,3.34,1.07,1.02,0,1.87-.25,2.52-.72.65-.45.97-1.1.97-1.89,0-.5-.12-.9-.42-1.22-.27-.32-.65-.6-1.07-.82-.42-.2-.85-.37-1.3-.5l-3.31-.92c-1.84-.52-3.21-1.32-4.11-2.34-.9-1.05-1.35-2.27-1.35-3.66,0-1.27.32-2.39.97-3.36.65-.95,1.54-1.69,2.69-2.22,1.15-.52,2.44-.77,3.89-.77,1.92,0,3.64.47,5.16,1.42,1.49.95,2.57,2.27,3.19,3.96l-3.44,1.62c-.4-1.02-1.05-1.84-1.94-2.44-.87-.6-1.87-.9-2.99-.9-.97,0-1.74.22-2.32.67-.55.45-.85,1.05-.85,1.77,0,.5.12.92.4,1.25.25.32.6.57,1,.77.42.2.85.35,1.3.47l3.44,1.02c1.72.5,3.06,1.27,4.01,2.32Z"/>
    <path class="cls-1" d="m158.7,235.76v3.79c-.35.05-.77.1-1.2.15-.45.05-.85.07-1.17.07-2.22,0-3.94-.62-5.16-1.87-1.22-1.25-1.82-2.99-1.82-5.26v-10.16h-3.76v-4.04h.6c1,0,1.77-.27,2.32-.85.55-.57.85-1.35.85-2.34v-1.64h4.38v4.83h4.81v4.04h-4.81v9.96c0,.72.12,1.35.37,1.84.22.52.6.9,1.12,1.17.52.27,1.2.42,2.02.42.22,0,.45-.02.7-.05.27-.02.52-.05.75-.07Z"/>
    <path class="cls-1" d="m181.52,224.3c-.45-1.22-1.1-2.29-1.97-3.26-.85-.95-1.92-1.69-3.16-2.22-1.25-.55-2.67-.82-4.28-.82-1.94,0-3.71.47-5.28,1.42s-2.81,2.24-3.71,3.86c-.92,1.64-1.37,3.54-1.37,5.65s.45,3.96,1.37,5.63c.9,1.69,2.17,3.01,3.79,3.99,1.59.97,3.46,1.44,5.56,1.44,1.47,0,2.79-.22,4.01-.67,1.2-.45,2.24-1.07,3.11-1.84s1.52-1.67,1.92-2.67l-3.59-1.77c-.55.9-1.25,1.64-2.14,2.22-.87.57-1.97.85-3.26.85-1.22,0-2.32-.3-3.29-.9-.97-.6-1.74-1.42-2.27-2.49-.35-.75-.55-1.57-.6-2.47h15.67c.07-.3.12-.65.15-1,.02-.37.05-.72.05-1.05,0-1.4-.25-2.69-.7-3.91Zm-14.6.77c.5-1.07,1.2-1.92,2.12-2.52.9-.57,1.92-.87,3.06-.87s2.19.3,3.09.87c.87.6,1.52,1.4,1.94,2.39.25.55.37,1.17.4,1.82h-11.11c.1-.62.27-1.17.5-1.69Z"/>
    <path class="cls-1" d="m206.93,223.38c-.92-1.67-2.19-2.99-3.79-3.94-1.59-.97-3.39-1.44-5.38-1.44-1.67,0-3.16.32-4.46,1-1.05.55-1.92,1.25-2.62,2.14v-2.69h-4.21v28.9h4.41v-10.26c.62.8,1.44,1.44,2.39,1.92,1.35.67,2.84,1,4.48,1,2.02,0,3.81-.47,5.41-1.44,1.59-.97,2.84-2.29,3.76-3.96s1.4-3.54,1.4-5.6-.47-3.96-1.4-5.6Zm-4.04,9.17c-.55,1.05-1.3,1.87-2.27,2.47-1,.6-2.09.9-3.34.9s-2.29-.3-3.26-.9-1.74-1.42-2.29-2.47c-.57-1.05-.85-2.24-.85-3.56s.27-2.47.85-3.54c.55-1.05,1.32-1.87,2.29-2.47.97-.6,2.07-.9,3.26-.9s2.34.3,3.34.92c.97.6,1.72,1.42,2.27,2.44.55,1.02.82,2.22.82,3.54s-.27,2.52-.82,3.56Z"/>
    <path class="cls-1" d="m220.39,240.01c-2.18,0-4.08-.53-5.69-1.6s-2.74-2.49-3.39-4.29l3.39-1.6c.57,1.2,1.36,2.14,2.36,2.85s2.11,1.05,3.33,1.05c1.04,0,1.88-.23,2.53-.7.65-.47.98-1.1.98-1.91,0-.49-.14-.9-.43-1.23-.28-.32-.64-.59-1.07-.8s-.86-.38-1.31-.51l-3.31-.94c-1.85-.52-3.22-1.3-4.11-2.34-.9-1.04-1.35-2.26-1.35-3.66,0-1.27.33-2.39.98-3.35.65-.96,1.54-1.7,2.69-2.22,1.14-.52,2.44-.78,3.9-.78,1.92,0,3.64.47,5.14,1.42s2.57,2.27,3.2,3.96l-3.43,1.64c-.42-1.04-1.07-1.86-1.95-2.45s-1.88-.9-3-.9c-.96,0-1.73.23-2.3.68-.57.45-.86,1.05-.86,1.77,0,.49.13.9.39,1.23.26.33.6.59,1.01.78s.84.36,1.28.49l3.43,1.01c1.74.49,3.08,1.27,4.01,2.32s1.4,2.31,1.4,3.76c0,1.25-.33,2.35-.99,3.29-.66.95-1.58,1.69-2.75,2.22-1.17.53-2.53.8-4.09.8Z"/>
    <path class="cls-1" d="m290.68,223.38c-.92-1.67-2.19-2.99-3.79-3.94-1.59-.97-3.39-1.44-5.41-1.44-1.67,0-3.14.32-4.43,1-.95.5-1.74,1.12-2.42,1.89v-10.84h-4.41v29.49h4.21v-2.72c.67.92,1.52,1.64,2.59,2.17,1.35.67,2.84,1,4.46,1,2.04,0,3.84-.47,5.43-1.44,1.57-.97,2.84-2.29,3.76-3.96.92-1.67,1.37-3.54,1.37-5.6s-.45-3.96-1.37-5.6Zm-4.04,9.17c-.55,1.05-1.32,1.87-2.29,2.47s-2.07.9-3.34.9c-1.2,0-2.27-.3-3.24-.9-.97-.6-1.74-1.42-2.29-2.47-.57-1.05-.85-2.24-.85-3.56s.27-2.47.85-3.54c.55-1.05,1.32-1.87,2.29-2.47.97-.6,2.04-.9,3.24-.9,1.27,0,2.37.3,3.34.92.97.6,1.74,1.42,2.29,2.44.55,1.02.82,2.22.82,3.54s-.27,2.52-.82,3.56Z"/>
    <path class="cls-1" d="m296.34,215.57v-5.07h4.4v5.07h-4.4Zm0,23.97v-21.08h4.4v21.08h-4.4Z"/>
    <path class="cls-1" d="m322.07,218.45v2.67c-.72-.87-1.52-1.57-2.49-2.09-1.3-.67-2.72-1.02-4.33-1.02-1.94,0-3.69.45-5.23,1.35-1.57.92-2.77,2.14-3.66,3.71-.87,1.57-1.32,3.34-1.32,5.33s.45,3.76,1.32,5.36c.9,1.57,2.12,2.81,3.66,3.74,1.57.9,3.34,1.37,5.31,1.37,1.62,0,3.06-.35,4.33-1.07.87-.47,1.62-1.07,2.22-1.84v2.64c0,1.15-.25,2.12-.77,2.94-.5.82-1.2,1.44-2.07,1.87-.9.42-1.89.65-3.01.65-1.42,0-2.62-.32-3.61-.97-.97-.67-1.62-1.47-1.99-2.47l-4.06,1.67c.45,1.17,1.15,2.19,2.07,3.06.95.87,2.07,1.54,3.36,2.04,1.32.5,2.74.75,4.28.75,1.97,0,3.74-.42,5.28-1.25,1.54-.85,2.74-1.97,3.61-3.41.87-1.44,1.32-3.06,1.32-4.88v-20.13h-4.21Zm-1,13.2c-.55.95-1.27,1.69-2.17,2.27-.92.55-1.94.82-3.11.82s-2.22-.27-3.16-.82c-.92-.57-1.67-1.32-2.19-2.29-.55-.95-.8-2.02-.8-3.19s.25-2.27.8-3.24c.52-.97,1.27-1.72,2.19-2.27.95-.57,1.99-.85,3.16-.85s2.19.27,3.11.85c.9.55,1.62,1.3,2.17,2.27.52.97.8,2.04.8,3.24s-.27,2.27-.8,3.21Z"/>
    <path class="cls-1" d="m348.24,240.01c-2.1,0-3.98-.49-5.61-1.46-1.63-.97-2.92-2.29-3.86-3.96-.93-1.66-1.4-3.55-1.4-5.65s.47-3.95,1.4-5.61c.94-1.66,2.22-2.97,3.86-3.92,1.64-.95,3.51-1.42,5.61-1.42,1.43,0,2.77.25,4.01.76,1.25.51,2.33,1.2,3.25,2.08.92.88,1.61,1.92,2.05,3.12l-3.89,1.75c-.44-1.09-1.14-1.97-2.1-2.63-.96-.66-2.07-.99-3.31-.99s-2.27.3-3.22.9c-.95.6-1.69,1.42-2.24,2.46-.54,1.04-.82,2.22-.82,3.55s.27,2.51.82,3.57c.55,1.05,1.29,1.88,2.24,2.48.95.6,2.02.9,3.22.9s2.35-.33,3.31-.99c.96-.66,1.66-1.55,2.1-2.67l3.89,1.83c-.42,1.12-1.08,2.12-2.01,3.02s-2,1.6-3.25,2.12-2.6.78-4.05.78Z"/>
    <path class="cls-1" d="m379.96,225.9v13.65h-4.41v-12.43c0-1.05-.17-1.94-.57-2.67-.4-.75-.95-1.32-1.64-1.74-.7-.42-1.49-.62-2.42-.62-.87,0-1.67.2-2.39.62-.72.42-1.27,1-1.67,1.74-.4.72-.6,1.62-.6,2.67v12.43h-4.41v-29.49h4.41v10.66c.45-.7,1.05-1.25,1.77-1.69,1.15-.67,2.49-1.02,3.99-1.02,1.57,0,2.94.32,4.14,1,1.2.67,2.12,1.62,2.79,2.81.7,1.2,1.02,2.57,1.02,4.09Z"/>
    <path class="cls-1" d="m400.98,221.51c-.72-1.1-1.72-1.97-2.99-2.59-1.3-.62-2.77-.92-4.43-.92-1.35,0-2.62.22-3.79.65-1.2.45-2.22,1.07-3.09,1.87-.87.82-1.52,1.74-1.92,2.77l3.69,1.84c.42-1,1.07-1.77,1.94-2.37s1.87-.9,3.01-.9c1.27,0,2.29.32,3.06.97.8.67,1.17,1.52,1.17,2.52v.8l-6.7,1.12c-1.62.25-2.96.7-4.04,1.32-1.05.62-1.82,1.4-2.32,2.29-.52.92-.77,1.94-.77,3.09,0,1.22.3,2.29.9,3.19.6.92,1.44,1.62,2.52,2.12s2.34.72,3.76.72c1.17,0,2.24-.15,3.24-.5.97-.32,1.84-.82,2.62-1.44.37-.3.7-.62,1-1v2.49h4.21v-14.2c0-1.44-.35-2.72-1.07-3.84Zm-3.34,9.27c0,1.07-.25,2.02-.75,2.89-.5.87-1.22,1.57-2.12,2.09-.9.52-1.92.77-3.09.77-.97,0-1.74-.25-2.37-.75-.6-.52-.9-1.17-.9-1.97s.27-1.49.8-2.04c.55-.52,1.42-.92,2.59-1.12l5.83-1v1.12Z"/>
    <path class="cls-1" d="m425.32,225.95v13.6h-4.41v-12.43c0-1.05-.17-1.94-.57-2.67-.4-.75-.95-1.32-1.64-1.74-.7-.42-1.49-.62-2.42-.62s-1.72.2-2.44.62c-.7.42-1.25,1-1.64,1.74-.4.72-.6,1.62-.6,2.67v12.43h-4.38v-21.1h4.21v2.57c.47-.82,1.15-1.49,1.97-1.99,1.15-.67,2.49-1.02,3.99-1.02,1.57,0,2.94.32,4.14,1s2.12,1.62,2.79,2.81c.7,1.2,1.02,2.57,1.02,4.14Z"/>
    <path class="cls-1" d="m446.2,218.45v2.67c-.7-.87-1.52-1.57-2.49-2.09-1.27-.67-2.72-1.02-4.31-1.02-1.94,0-3.71.45-5.26,1.35-1.54.92-2.77,2.14-3.64,3.71-.87,1.57-1.32,3.34-1.32,5.33s.45,3.76,1.32,5.36c.87,1.57,2.09,2.81,3.66,3.74,1.57.9,3.34,1.37,5.31,1.37,1.62,0,3.06-.35,4.33-1.07.87-.47,1.62-1.1,2.22-1.87v2.67c0,1.15-.25,2.12-.77,2.94-.5.82-1.2,1.44-2.09,1.87-.87.42-1.87.65-2.99.65-1.42,0-2.64-.32-3.61-.97-.97-.67-1.64-1.47-1.99-2.47l-4.06,1.67c.45,1.17,1.12,2.19,2.07,3.06s2.07,1.54,3.36,2.04c1.32.5,2.74.75,4.28.75,1.97,0,3.71-.42,5.28-1.25,1.54-.85,2.74-1.97,3.61-3.41.87-1.44,1.3-3.06,1.3-4.88v-20.13h-4.21Zm-.97,13.2c-.55.95-1.27,1.69-2.17,2.27-.92.55-1.97.82-3.11.82s-2.24-.27-3.16-.82c-.95-.57-1.67-1.32-2.22-2.29-.52-.95-.8-2.02-.8-3.19s.27-2.27.8-3.24c.55-.97,1.27-1.72,2.22-2.27.92-.57,1.99-.85,3.16-.85s2.19.27,3.11.85c.9.55,1.62,1.3,2.17,2.27.52.97.8,2.04.8,3.24s-.27,2.27-.8,3.21Z"/>
    <path class="cls-1" d="m474.47,224.3c-.45-1.22-1.1-2.29-1.97-3.26-.85-.95-1.89-1.69-3.14-2.22-1.25-.55-2.69-.82-4.28-.82-1.97,0-3.71.47-5.28,1.42s-2.81,2.24-3.74,3.86c-.9,1.64-1.35,3.54-1.35,5.65s.45,3.96,1.35,5.63c.92,1.69,2.17,3.01,3.79,3.99,1.62.97,3.46,1.44,5.58,1.44,1.44,0,2.79-.22,3.99-.67,1.22-.45,2.24-1.07,3.11-1.84.87-.77,1.52-1.67,1.94-2.67l-3.59-1.77c-.55.9-1.27,1.64-2.14,2.22-.9.57-1.99.85-3.29.85-1.22,0-2.32-.3-3.29-.9s-1.72-1.42-2.27-2.49c-.35-.75-.55-1.57-.6-2.47h15.67c.07-.3.12-.65.15-1,.02-.37.05-.72.05-1.05,0-1.4-.22-2.69-.7-3.91Zm-14.57.77c.47-1.07,1.2-1.92,2.09-2.52.92-.57,1.94-.87,3.09-.87s2.19.3,3.06.87c.9.6,1.54,1.4,1.94,2.39.25.57.37,1.17.4,1.82h-11.09c.1-.6.25-1.17.5-1.69Z"/>
  </g>
  <path class="cls-1" d="m257.42,228.51c0,2.82-2.1,4.73-5.26,4.73s-5.26-1.91-5.26-4.73c0-2.96,2.1-4.92,5.26-4.92s5.26,1.96,5.26,4.92Z"/>
</svg>